<mxfile host="Electron" modified="2023-12-18T16:18:54.032Z" agent="Mozilla/5.0 (Windows NT 10.0; Win64; x64) AppleWebKit/537.36 (KHTML, like Gecko) draw.io/22.1.2 Chrome/114.0.5735.289 Electron/25.9.4 Safari/537.36" etag="NkcHioNhZtghIJFIwlvW" version="22.1.2" type="device" pages="2">
  <diagram name="HL" id="FFA9UxrkgAWa3RQxIZZn">
    <mxGraphModel dx="1313" dy="819" grid="1" gridSize="10" guides="1" tooltips="1" connect="1" arrows="1" fold="1" page="1" pageScale="1" pageWidth="850" pageHeight="1100" math="0" shadow="0">
      <root>
        <mxCell id="0" />
        <mxCell id="1" parent="0" />
        <mxCell id="5X7tObLMQbzSkKFwxiyW-83" value="west europe region" style="rounded=0;whiteSpace=wrap;html=1;fontSize=12;fillColor=none;strokeColor=#808080;dashed=1;dashPattern=1 1;verticalAlign=top;fontColor=#333333;align=left;" parent="1" vertex="1">
          <mxGeometry x="30" y="53" width="390" height="430" as="geometry" />
        </mxCell>
        <mxCell id="5X7tObLMQbzSkKFwxiyW-84" value="north europe region" style="rounded=0;whiteSpace=wrap;html=1;fontSize=12;fillColor=none;strokeColor=#808080;dashed=1;dashPattern=1 1;verticalAlign=top;fontColor=#333333;align=left;" parent="1" vertex="1">
          <mxGeometry x="440" y="53" width="730" height="430" as="geometry" />
        </mxCell>
        <mxCell id="5X7tObLMQbzSkKFwxiyW-85" value="" style="group" parent="1" vertex="1" connectable="0">
          <mxGeometry x="260" y="343" width="140" height="80" as="geometry" />
        </mxCell>
        <mxCell id="5X7tObLMQbzSkKFwxiyW-86" value="" style="rounded=1;whiteSpace=wrap;html=1;fontSize=16;dashed=1;strokeColor=#7EA6E0;arcSize=8;" parent="5X7tObLMQbzSkKFwxiyW-85" vertex="1">
          <mxGeometry width="140" height="80" as="geometry" />
        </mxCell>
        <mxCell id="5X7tObLMQbzSkKFwxiyW-87" value="hub-lab-net" style="aspect=fixed;html=1;points=[];align=center;image;fontSize=12;image=img/lib/azure2/networking/Virtual_Networks.svg;" parent="5X7tObLMQbzSkKFwxiyW-85" vertex="1">
          <mxGeometry x="53.25" y="30" width="33.5" height="20" as="geometry" />
        </mxCell>
        <mxCell id="5X7tObLMQbzSkKFwxiyW-88" value="" style="group" parent="1" vertex="1" connectable="0">
          <mxGeometry x="260" y="93" width="140" height="80" as="geometry" />
        </mxCell>
        <mxCell id="5X7tObLMQbzSkKFwxiyW-89" value="" style="rounded=1;whiteSpace=wrap;html=1;fontSize=16;dashed=1;strokeColor=#7EA6E0;arcSize=8;" parent="5X7tObLMQbzSkKFwxiyW-88" vertex="1">
          <mxGeometry width="140" height="80" as="geometry" />
        </mxCell>
        <mxCell id="5X7tObLMQbzSkKFwxiyW-90" value="spoke-02" style="aspect=fixed;html=1;points=[];align=center;image;fontSize=12;image=img/lib/azure2/networking/Virtual_Networks.svg;" parent="5X7tObLMQbzSkKFwxiyW-88" vertex="1">
          <mxGeometry x="53.25" y="30" width="33.5" height="20" as="geometry" />
        </mxCell>
        <mxCell id="5X7tObLMQbzSkKFwxiyW-91" value="" style="group" parent="1" vertex="1" connectable="0">
          <mxGeometry x="480" y="203" width="140" height="80" as="geometry" />
        </mxCell>
        <mxCell id="5X7tObLMQbzSkKFwxiyW-92" value="" style="rounded=1;whiteSpace=wrap;html=1;fontSize=16;dashed=1;strokeColor=#7EA6E0;arcSize=8;" parent="5X7tObLMQbzSkKFwxiyW-91" vertex="1">
          <mxGeometry width="140" height="80" as="geometry" />
        </mxCell>
        <mxCell id="5X7tObLMQbzSkKFwxiyW-93" value="spoke-03" style="aspect=fixed;html=1;points=[];align=center;image;fontSize=12;image=img/lib/azure2/networking/Virtual_Networks.svg;" parent="5X7tObLMQbzSkKFwxiyW-91" vertex="1">
          <mxGeometry x="53.25" y="30" width="33.5" height="20" as="geometry" />
        </mxCell>
        <mxCell id="5X7tObLMQbzSkKFwxiyW-94" value="" style="group" parent="1" vertex="1" connectable="0">
          <mxGeometry x="40" y="203" width="140" height="80" as="geometry" />
        </mxCell>
        <mxCell id="5X7tObLMQbzSkKFwxiyW-95" value="" style="rounded=1;whiteSpace=wrap;html=1;fontSize=16;dashed=1;strokeColor=#7EA6E0;arcSize=8;" parent="5X7tObLMQbzSkKFwxiyW-94" vertex="1">
          <mxGeometry width="140" height="80" as="geometry" />
        </mxCell>
        <mxCell id="5X7tObLMQbzSkKFwxiyW-96" value="spoke-01" style="aspect=fixed;html=1;points=[];align=center;image;fontSize=12;image=img/lib/azure2/networking/Virtual_Networks.svg;" parent="5X7tObLMQbzSkKFwxiyW-94" vertex="1">
          <mxGeometry x="53.25" y="30" width="33.5" height="20" as="geometry" />
        </mxCell>
        <mxCell id="5X7tObLMQbzSkKFwxiyW-97" value="" style="group" parent="1" vertex="1" connectable="0">
          <mxGeometry x="648" y="353" width="140" height="80" as="geometry" />
        </mxCell>
        <mxCell id="5X7tObLMQbzSkKFwxiyW-98" value="" style="group" parent="5X7tObLMQbzSkKFwxiyW-97" vertex="1" connectable="0">
          <mxGeometry width="140" height="80" as="geometry" />
        </mxCell>
        <mxCell id="5X7tObLMQbzSkKFwxiyW-99" value="" style="rounded=1;whiteSpace=wrap;html=1;fontSize=16;dashed=1;strokeColor=#7EA6E0;arcSize=8;" parent="5X7tObLMQbzSkKFwxiyW-98" vertex="1">
          <mxGeometry width="140" height="80" as="geometry" />
        </mxCell>
        <mxCell id="5X7tObLMQbzSkKFwxiyW-100" value="hub-lab-net-02" style="aspect=fixed;html=1;points=[];align=center;image;fontSize=12;image=img/lib/azure2/networking/Virtual_Networks.svg;" parent="5X7tObLMQbzSkKFwxiyW-98" vertex="1">
          <mxGeometry x="53.25" y="30" width="33.5" height="20" as="geometry" />
        </mxCell>
        <mxCell id="5X7tObLMQbzSkKFwxiyW-104" value="" style="endArrow=classic;startArrow=classic;html=1;rounded=0;fontSize=12;startSize=8;endSize=8;curved=1;strokeColor=#7EA6E0;exitX=0.493;exitY=-0.058;exitDx=0;exitDy=0;exitPerimeter=0;" parent="1" edge="1">
          <mxGeometry width="50" height="50" relative="1" as="geometry">
            <mxPoint x="329.0200000000002" y="339.3600000000001" as="sourcePoint" />
            <mxPoint x="329.5" y="174" as="targetPoint" />
          </mxGeometry>
        </mxCell>
        <mxCell id="5X7tObLMQbzSkKFwxiyW-105" value="" style="endArrow=classic;startArrow=classic;html=1;rounded=0;fontSize=12;startSize=8;endSize=8;curved=1;strokeColor=#7EA6E0;entryX=0;entryY=1;entryDx=0;entryDy=0;" parent="1" target="5X7tObLMQbzSkKFwxiyW-92" edge="1">
          <mxGeometry width="50" height="50" relative="1" as="geometry">
            <mxPoint x="400" y="343" as="sourcePoint" />
            <mxPoint x="430.48" y="265.31999999999994" as="targetPoint" />
          </mxGeometry>
        </mxCell>
        <mxCell id="5X7tObLMQbzSkKFwxiyW-106" value="" style="endArrow=classic;startArrow=classic;html=1;rounded=0;fontSize=12;startSize=8;endSize=8;curved=1;strokeColor=#7EA6E0;entryX=0;entryY=1;entryDx=0;entryDy=0;" parent="1" edge="1">
          <mxGeometry width="50" height="50" relative="1" as="geometry">
            <mxPoint x="260" y="343" as="sourcePoint" />
            <mxPoint x="180" y="283" as="targetPoint" />
          </mxGeometry>
        </mxCell>
        <mxCell id="5X7tObLMQbzSkKFwxiyW-107" value="" style="endArrow=classic;startArrow=classic;html=1;rounded=0;fontSize=12;startSize=8;endSize=8;curved=1;strokeColor=#7EA6E0;" parent="1" edge="1">
          <mxGeometry width="50" height="50" relative="1" as="geometry">
            <mxPoint x="755" y="338" as="sourcePoint" />
            <mxPoint x="742" y="154" as="targetPoint" />
          </mxGeometry>
        </mxCell>
        <mxCell id="5X7tObLMQbzSkKFwxiyW-108" value="" style="shadow=0;dashed=0;html=1;strokeColor=none;fillColor=#4495D1;labelPosition=center;verticalLabelPosition=bottom;verticalAlign=top;align=center;outlineConnect=0;shape=mxgraph.veeam.globe;fontSize=16;" parent="1" vertex="1">
          <mxGeometry x="481" y="30" width="30" height="30" as="geometry" />
        </mxCell>
        <mxCell id="5X7tObLMQbzSkKFwxiyW-109" value="" style="shadow=0;dashed=0;html=1;strokeColor=none;fillColor=#4495D1;labelPosition=center;verticalLabelPosition=bottom;verticalAlign=top;align=center;outlineConnect=0;shape=mxgraph.veeam.globe;fontSize=16;" parent="1" vertex="1">
          <mxGeometry x="60" y="30.399999999999977" width="30" height="29.2" as="geometry" />
        </mxCell>
        <mxCell id="5X7tObLMQbzSkKFwxiyW-110" value="" style="endArrow=classic;startArrow=classic;html=1;rounded=0;fontSize=12;startSize=8;endSize=8;curved=1;strokeColor=#7EA6E0;" parent="1" edge="1">
          <mxGeometry width="50" height="50" relative="1" as="geometry">
            <mxPoint x="799" y="384" as="sourcePoint" />
            <mxPoint x="1014" y="331" as="targetPoint" />
          </mxGeometry>
        </mxCell>
        <mxCell id="5X7tObLMQbzSkKFwxiyW-111" value="" style="endArrow=classic;startArrow=classic;html=1;rounded=0;fontSize=12;startSize=8;endSize=8;curved=1;strokeColor=#7EA6E0;" parent="1" edge="1">
          <mxGeometry width="50" height="50" relative="1" as="geometry">
            <mxPoint x="1006" y="266" as="sourcePoint" />
            <mxPoint x="801" y="366" as="targetPoint" />
          </mxGeometry>
        </mxCell>
        <mxCell id="5X7tObLMQbzSkKFwxiyW-112" value="" style="endArrow=classic;startArrow=classic;html=1;rounded=0;fontSize=12;startSize=8;endSize=8;curved=1;strokeColor=#7EA6E0;" parent="1" edge="1">
          <mxGeometry width="50" height="50" relative="1" as="geometry">
            <mxPoint x="974" y="207" as="sourcePoint" />
            <mxPoint x="803" y="350" as="targetPoint" />
          </mxGeometry>
        </mxCell>
        <mxCell id="5X7tObLMQbzSkKFwxiyW-113" value="" style="endArrow=classic;startArrow=classic;html=1;rounded=0;fontSize=12;startSize=8;endSize=8;curved=1;strokeColor=#7EA6E0;" parent="1" edge="1">
          <mxGeometry width="50" height="50" relative="1" as="geometry">
            <mxPoint x="791" y="338" as="sourcePoint" />
            <mxPoint x="918" y="180" as="targetPoint" />
          </mxGeometry>
        </mxCell>
        <mxCell id="5X7tObLMQbzSkKFwxiyW-123" value="" style="endArrow=classic;startArrow=classic;html=1;rounded=0;fontSize=12;startSize=8;endSize=8;curved=1;strokeColor=#7EA6E0;" parent="1" edge="1">
          <mxGeometry width="50" height="50" relative="1" as="geometry">
            <mxPoint x="773" y="333" as="sourcePoint" />
            <mxPoint x="840" y="174" as="targetPoint" />
          </mxGeometry>
        </mxCell>
        <mxCell id="5X7tObLMQbzSkKFwxiyW-124" value="" style="group" parent="1" vertex="1" connectable="0">
          <mxGeometry x="628" y="73" width="140" height="80" as="geometry" />
        </mxCell>
        <mxCell id="5X7tObLMQbzSkKFwxiyW-125" value="" style="rounded=1;whiteSpace=wrap;html=1;fontSize=16;dashed=1;strokeColor=#7EA6E0;arcSize=8;" parent="5X7tObLMQbzSkKFwxiyW-124" vertex="1">
          <mxGeometry width="140" height="80" as="geometry" />
        </mxCell>
        <mxCell id="5X7tObLMQbzSkKFwxiyW-126" value="spoke-04" style="aspect=fixed;html=1;points=[];align=center;image;fontSize=12;image=img/lib/azure2/networking/Virtual_Networks.svg;" parent="5X7tObLMQbzSkKFwxiyW-124" vertex="1">
          <mxGeometry x="53.25" y="30" width="33.5" height="20" as="geometry" />
        </mxCell>
        <mxCell id="5X7tObLMQbzSkKFwxiyW-127" value="" style="group" parent="1" vertex="1" connectable="0">
          <mxGeometry x="778" y="70" width="342" height="160" as="geometry" />
        </mxCell>
        <mxCell id="5X7tObLMQbzSkKFwxiyW-128" value="" style="rounded=1;whiteSpace=wrap;html=1;fontSize=16;dashed=1;strokeColor=#7EA6E0;arcSize=8;" parent="5X7tObLMQbzSkKFwxiyW-127" vertex="1">
          <mxGeometry width="140" height="80" as="geometry" />
        </mxCell>
        <mxCell id="5X7tObLMQbzSkKFwxiyW-129" value="spoke-05" style="aspect=fixed;html=1;points=[];align=center;image;fontSize=12;image=img/lib/azure2/networking/Virtual_Networks.svg;" parent="5X7tObLMQbzSkKFwxiyW-127" vertex="1">
          <mxGeometry x="54.25" y="30" width="33.5" height="20" as="geometry" />
        </mxCell>
        <mxCell id="5X7tObLMQbzSkKFwxiyW-101" value="" style="group" parent="5X7tObLMQbzSkKFwxiyW-127" vertex="1" connectable="0">
          <mxGeometry x="102" y="20" width="240" height="140" as="geometry" />
        </mxCell>
        <mxCell id="5X7tObLMQbzSkKFwxiyW-102" value="" style="rounded=1;whiteSpace=wrap;html=1;fontSize=16;dashed=1;strokeColor=#7EA6E0;arcSize=8;" parent="5X7tObLMQbzSkKFwxiyW-101" vertex="1">
          <mxGeometry width="140" height="80" as="geometry" />
        </mxCell>
        <mxCell id="5X7tObLMQbzSkKFwxiyW-103" value="spoke-06" style="aspect=fixed;html=1;points=[];align=center;image;fontSize=12;image=img/lib/azure2/networking/Virtual_Networks.svg;" parent="5X7tObLMQbzSkKFwxiyW-101" vertex="1">
          <mxGeometry x="53.25" y="30" width="33.5" height="20" as="geometry" />
        </mxCell>
        <mxCell id="5X7tObLMQbzSkKFwxiyW-114" value="" style="group" parent="5X7tObLMQbzSkKFwxiyW-101" vertex="1" connectable="0">
          <mxGeometry x="100" y="60" width="140" height="80" as="geometry" />
        </mxCell>
        <mxCell id="5X7tObLMQbzSkKFwxiyW-115" value="" style="rounded=1;whiteSpace=wrap;html=1;fontSize=16;dashed=1;strokeColor=#7EA6E0;arcSize=8;" parent="5X7tObLMQbzSkKFwxiyW-114" vertex="1">
          <mxGeometry width="140" height="80" as="geometry" />
        </mxCell>
        <mxCell id="5X7tObLMQbzSkKFwxiyW-116" value="spoke-07" style="aspect=fixed;html=1;points=[];align=center;image;fontSize=12;image=img/lib/azure2/networking/Virtual_Networks.svg;" parent="5X7tObLMQbzSkKFwxiyW-114" vertex="1">
          <mxGeometry x="53.25" y="30" width="33.5" height="20" as="geometry" />
        </mxCell>
        <mxCell id="5X7tObLMQbzSkKFwxiyW-130" value="france central region" style="rounded=0;whiteSpace=wrap;html=1;fontSize=12;fillColor=none;strokeColor=#808080;dashed=1;dashPattern=1 1;verticalAlign=top;fontColor=#333333;align=center;" parent="1" vertex="1">
          <mxGeometry x="135" y="555.5999999999999" width="205" height="167.4" as="geometry" />
        </mxCell>
        <mxCell id="5X7tObLMQbzSkKFwxiyW-131" value="" style="shadow=0;dashed=0;html=1;strokeColor=none;fillColor=#4495D1;labelPosition=center;verticalLabelPosition=bottom;verticalAlign=top;align=center;outlineConnect=0;shape=mxgraph.veeam.globe;fontSize=16;" parent="1" vertex="1">
          <mxGeometry x="225" y="533" width="30" height="29.2" as="geometry" />
        </mxCell>
        <mxCell id="5X7tObLMQbzSkKFwxiyW-132" value="" style="group" parent="1" vertex="1" connectable="0">
          <mxGeometry x="170" y="613" width="140" height="80" as="geometry" />
        </mxCell>
        <mxCell id="5X7tObLMQbzSkKFwxiyW-133" value="" style="rounded=1;whiteSpace=wrap;html=1;fontSize=16;dashed=1;strokeColor=#7EA6E0;arcSize=8;" parent="5X7tObLMQbzSkKFwxiyW-132" vertex="1">
          <mxGeometry width="140" height="80" as="geometry" />
        </mxCell>
        <mxCell id="5X7tObLMQbzSkKFwxiyW-134" value="on-prem-net" style="aspect=fixed;html=1;points=[];align=center;image;fontSize=12;image=img/lib/azure2/networking/Virtual_Networks.svg;" parent="5X7tObLMQbzSkKFwxiyW-132" vertex="1">
          <mxGeometry x="53.25" y="30" width="33.5" height="20" as="geometry" />
        </mxCell>
        <mxCell id="5X7tObLMQbzSkKFwxiyW-135" value="germany west central region" style="rounded=0;whiteSpace=wrap;html=1;fontSize=12;fillColor=none;strokeColor=#808080;dashed=1;dashPattern=1 1;verticalAlign=top;fontColor=#333333;align=center;" parent="1" vertex="1">
          <mxGeometry x="620" y="555.5999999999999" width="205" height="167.4" as="geometry" />
        </mxCell>
        <mxCell id="5X7tObLMQbzSkKFwxiyW-136" value="" style="shadow=0;dashed=0;html=1;strokeColor=none;fillColor=#4495D1;labelPosition=center;verticalLabelPosition=bottom;verticalAlign=top;align=center;outlineConnect=0;shape=mxgraph.veeam.globe;fontSize=16;" parent="1" vertex="1">
          <mxGeometry x="707" y="533" width="30" height="29.2" as="geometry" />
        </mxCell>
        <mxCell id="5X7tObLMQbzSkKFwxiyW-137" value="" style="group" parent="1" vertex="1" connectable="0">
          <mxGeometry x="655" y="613" width="140" height="80" as="geometry" />
        </mxCell>
        <mxCell id="5X7tObLMQbzSkKFwxiyW-138" value="" style="rounded=1;whiteSpace=wrap;html=1;fontSize=16;dashed=1;strokeColor=#7EA6E0;arcSize=8;" parent="5X7tObLMQbzSkKFwxiyW-137" vertex="1">
          <mxGeometry width="140" height="80" as="geometry" />
        </mxCell>
        <mxCell id="5X7tObLMQbzSkKFwxiyW-139" value="on-prem-net-2" style="aspect=fixed;html=1;points=[];align=center;image;fontSize=12;image=img/lib/azure2/networking/Virtual_Networks.svg;" parent="5X7tObLMQbzSkKFwxiyW-137" vertex="1">
          <mxGeometry x="53.25" y="30" width="33.5" height="20" as="geometry" />
        </mxCell>
        <mxCell id="dSsX249fbGMWdAH10Jo9-4" value="" style="endArrow=classic;startArrow=classic;html=1;rounded=0;fontSize=12;startSize=8;endSize=8;curved=1;strokeColor=#7EA6E0;" parent="1" edge="1">
          <mxGeometry width="50" height="50" relative="1" as="geometry">
            <mxPoint x="795" y="401" as="sourcePoint" />
            <mxPoint x="992" y="402" as="targetPoint" />
          </mxGeometry>
        </mxCell>
        <mxCell id="5X7tObLMQbzSkKFwxiyW-120" value="" style="group" parent="1" vertex="1" connectable="0">
          <mxGeometry x="1010" y="220" width="140" height="80" as="geometry" />
        </mxCell>
        <mxCell id="5X7tObLMQbzSkKFwxiyW-121" value="" style="rounded=1;whiteSpace=wrap;html=1;fontSize=16;dashed=1;strokeColor=#7EA6E0;arcSize=8;" parent="5X7tObLMQbzSkKFwxiyW-120" vertex="1">
          <mxGeometry width="140" height="80" as="geometry" />
        </mxCell>
        <mxCell id="5X7tObLMQbzSkKFwxiyW-122" value="spoke-08" style="aspect=fixed;html=1;points=[];align=center;image;fontSize=12;image=img/lib/azure2/networking/Virtual_Networks.svg;" parent="5X7tObLMQbzSkKFwxiyW-120" vertex="1">
          <mxGeometry x="53.25" y="30" width="33.5" height="20" as="geometry" />
        </mxCell>
        <mxCell id="5X7tObLMQbzSkKFwxiyW-117" value="" style="group" parent="1" vertex="1" connectable="0">
          <mxGeometry x="1020" y="290" width="140" height="80" as="geometry" />
        </mxCell>
        <mxCell id="5X7tObLMQbzSkKFwxiyW-118" value="" style="rounded=1;whiteSpace=wrap;html=1;fontSize=16;dashed=1;strokeColor=#7EA6E0;arcSize=8;" parent="5X7tObLMQbzSkKFwxiyW-117" vertex="1">
          <mxGeometry width="140" height="80" as="geometry" />
        </mxCell>
        <mxCell id="5X7tObLMQbzSkKFwxiyW-119" value="spoke-09" style="aspect=fixed;html=1;points=[];align=center;image;fontSize=12;image=img/lib/azure2/networking/Virtual_Networks.svg;" parent="5X7tObLMQbzSkKFwxiyW-117" vertex="1">
          <mxGeometry x="53.25" y="30" width="33.5" height="20" as="geometry" />
        </mxCell>
        <mxCell id="dSsX249fbGMWdAH10Jo9-1" value="" style="group" parent="1" vertex="1" connectable="0">
          <mxGeometry x="1000" y="360" width="140" height="80" as="geometry" />
        </mxCell>
        <mxCell id="dSsX249fbGMWdAH10Jo9-2" value="" style="rounded=1;whiteSpace=wrap;html=1;fontSize=16;dashed=1;strokeColor=#7EA6E0;arcSize=8;" parent="dSsX249fbGMWdAH10Jo9-1" vertex="1">
          <mxGeometry width="140" height="80" as="geometry" />
        </mxCell>
        <mxCell id="dSsX249fbGMWdAH10Jo9-3" value="spoke-10" style="aspect=fixed;html=1;points=[];align=center;image;fontSize=12;image=img/lib/azure2/networking/Virtual_Networks.svg;" parent="dSsX249fbGMWdAH10Jo9-1" vertex="1">
          <mxGeometry x="53.25" y="30" width="33.5" height="20" as="geometry" />
        </mxCell>
      </root>
    </mxGraphModel>
  </diagram>
  <diagram id="G0sbaJzb5NPL9-hOjNBf" name="hub">
    <mxGraphModel dx="1713" dy="1619" grid="1" gridSize="10" guides="1" tooltips="1" connect="1" arrows="1" fold="1" page="0" pageScale="1" pageWidth="827" pageHeight="1169" math="0" shadow="0">
      <root>
        <mxCell id="0" />
        <mxCell id="1" parent="0" />
        <mxCell id="hpnd1dc4tP3PjBRDumoB-1" value="" style="rounded=1;whiteSpace=wrap;html=1;fontSize=16;dashed=1;strokeColor=#7EA6E0;arcSize=2;fontFamily=Helvetica;" parent="1" vertex="1">
          <mxGeometry x="11.97999999999999" y="895" width="210.99" height="500" as="geometry" />
        </mxCell>
        <mxCell id="hpnd1dc4tP3PjBRDumoB-4" value="DefaultSubnet&lt;br&gt;192.168.1.0/24" style="rounded=1;whiteSpace=wrap;html=1;fontSize=12;arcSize=3;strokeColor=none;fillColor=#E6E6E6;fontColor=#333333;align=left;verticalAlign=top;fontFamily=Helvetica;" parent="1" vertex="1">
          <mxGeometry x="21.980000000000004" y="965" width="190.99" height="133" as="geometry" />
        </mxCell>
        <mxCell id="L_onUNhunwq-0PMVupzS-2" value="" style="group;fontFamily=Helvetica;" parent="1" vertex="1" connectable="0">
          <mxGeometry x="130" y="-148" width="310" height="228" as="geometry" />
        </mxCell>
        <mxCell id="Q5VnFqTPQdIVWb0sbmC3-2" value="" style="rounded=1;whiteSpace=wrap;html=1;fontSize=16;dashed=1;strokeColor=#7EA6E0;arcSize=2;fontFamily=Helvetica;" parent="L_onUNhunwq-0PMVupzS-2" vertex="1">
          <mxGeometry width="310" height="228" as="geometry" />
        </mxCell>
        <mxCell id="Q5VnFqTPQdIVWb0sbmC3-3" value="spoke-01&lt;br&gt;10.13.1.0/24" style="aspect=fixed;html=1;points=[];align=left;image;fontSize=12;image=img/lib/azure2/networking/Virtual_Networks.svg;fontColor=#333333;fontFamily=Helvetica;" parent="L_onUNhunwq-0PMVupzS-2" vertex="1">
          <mxGeometry x="7" y="5" width="23" height="13.73" as="geometry" />
        </mxCell>
        <mxCell id="Q5VnFqTPQdIVWb0sbmC3-5" value="services&lt;br&gt;10.13.1.64/26" style="rounded=1;whiteSpace=wrap;html=1;fontSize=12;arcSize=3;strokeColor=none;fillColor=#E6E6E6;align=left;verticalAlign=top;fontColor=#333333;fontFamily=Helvetica;" parent="L_onUNhunwq-0PMVupzS-2" vertex="1">
          <mxGeometry x="160" y="88" width="142" height="133" as="geometry" />
        </mxCell>
        <mxCell id="L_onUNhunwq-0PMVupzS-1" value="" style="group;fontFamily=Helvetica;" parent="L_onUNhunwq-0PMVupzS-2" vertex="1" connectable="0">
          <mxGeometry x="7" y="88" width="142" height="133" as="geometry" />
        </mxCell>
        <mxCell id="Q5VnFqTPQdIVWb0sbmC3-4" value="default&lt;br&gt;10.13.1.0/26" style="rounded=1;whiteSpace=wrap;html=1;fontSize=12;arcSize=3;strokeColor=none;fillColor=#E6E6E6;fontColor=#333333;align=left;verticalAlign=top;fontFamily=Helvetica;" parent="L_onUNhunwq-0PMVupzS-1" vertex="1">
          <mxGeometry width="142" height="133" as="geometry" />
        </mxCell>
        <mxCell id="Q5VnFqTPQdIVWb0sbmC3-7" value="spoke-01-vm&lt;br&gt;10.13.1.4" style="image;sketch=0;aspect=fixed;html=1;points=[];align=center;fontSize=12;image=img/lib/mscae/VirtualMachineWindows.svg;fontFamily=Helvetica;" parent="L_onUNhunwq-0PMVupzS-1" vertex="1">
          <mxGeometry x="46" y="40" width="50" height="46" as="geometry" />
        </mxCell>
        <mxCell id="FjdcS0Hu4CrfSGPX0AEl-6" value="west europe" style="shadow=0;dashed=0;html=1;strokeColor=none;fillColor=#4495D1;labelPosition=right;verticalLabelPosition=middle;verticalAlign=middle;align=left;outlineConnect=0;shape=mxgraph.veeam.globe;fontSize=12;fontColor=#808080;direction=south;rotation=0;fontFamily=Helvetica;" parent="L_onUNhunwq-0PMVupzS-2" vertex="1">
          <mxGeometry x="224.5" y="5.230000000000018" width="13" height="13.5" as="geometry" />
        </mxCell>
        <mxCell id="L_onUNhunwq-0PMVupzS-3" value="" style="group;fontFamily=Helvetica;" parent="1" vertex="1" connectable="0">
          <mxGeometry x="130" y="100" width="310" height="228" as="geometry" />
        </mxCell>
        <mxCell id="L_onUNhunwq-0PMVupzS-4" value="" style="rounded=1;whiteSpace=wrap;html=1;fontSize=16;dashed=1;strokeColor=#7EA6E0;arcSize=2;fontFamily=Helvetica;" parent="L_onUNhunwq-0PMVupzS-3" vertex="1">
          <mxGeometry width="310" height="228" as="geometry" />
        </mxCell>
        <mxCell id="L_onUNhunwq-0PMVupzS-5" value="spoke-02&lt;br&gt;10.13.2.0/24" style="aspect=fixed;html=1;points=[];align=left;image;fontSize=12;image=img/lib/azure2/networking/Virtual_Networks.svg;fontColor=#333333;fontFamily=Helvetica;" parent="L_onUNhunwq-0PMVupzS-3" vertex="1">
          <mxGeometry x="7" y="5" width="23" height="13.73" as="geometry" />
        </mxCell>
        <mxCell id="L_onUNhunwq-0PMVupzS-6" value="services&lt;br&gt;10.13.2.64/26" style="rounded=1;whiteSpace=wrap;html=1;fontSize=12;arcSize=3;strokeColor=none;fillColor=#E6E6E6;align=left;verticalAlign=top;fontColor=#333333;fontFamily=Helvetica;" parent="L_onUNhunwq-0PMVupzS-3" vertex="1">
          <mxGeometry x="160" y="88" width="142" height="133" as="geometry" />
        </mxCell>
        <mxCell id="L_onUNhunwq-0PMVupzS-7" value="" style="group;fontFamily=Helvetica;" parent="L_onUNhunwq-0PMVupzS-3" vertex="1" connectable="0">
          <mxGeometry x="7" y="88" width="142" height="133" as="geometry" />
        </mxCell>
        <mxCell id="L_onUNhunwq-0PMVupzS-8" value="default&lt;br&gt;10.13.2.0/26" style="rounded=1;whiteSpace=wrap;html=1;fontSize=12;arcSize=3;strokeColor=none;fillColor=#E6E6E6;fontColor=#333333;align=left;verticalAlign=top;fontFamily=Helvetica;" parent="L_onUNhunwq-0PMVupzS-7" vertex="1">
          <mxGeometry width="142" height="133" as="geometry" />
        </mxCell>
        <mxCell id="L_onUNhunwq-0PMVupzS-9" value="spoke-01-vm&lt;br&gt;10.13.2.4" style="image;sketch=0;aspect=fixed;html=1;points=[];align=center;fontSize=12;image=img/lib/mscae/VirtualMachineWindows.svg;fontFamily=Helvetica;" parent="L_onUNhunwq-0PMVupzS-7" vertex="1">
          <mxGeometry x="46" y="40" width="50" height="46" as="geometry" />
        </mxCell>
        <mxCell id="FjdcS0Hu4CrfSGPX0AEl-7" value="west europe" style="shadow=0;dashed=0;html=1;strokeColor=none;fillColor=#4495D1;labelPosition=right;verticalLabelPosition=middle;verticalAlign=middle;align=left;outlineConnect=0;shape=mxgraph.veeam.globe;fontSize=12;fontColor=#808080;direction=south;rotation=0;fontFamily=Helvetica;" parent="L_onUNhunwq-0PMVupzS-3" vertex="1">
          <mxGeometry x="224.5" y="5.000000000000028" width="13" height="13.5" as="geometry" />
        </mxCell>
        <mxCell id="L_onUNhunwq-0PMVupzS-10" value="" style="group;fontFamily=Helvetica;" parent="1" vertex="1" connectable="0">
          <mxGeometry x="130" y="340" width="310" height="228" as="geometry" />
        </mxCell>
        <mxCell id="L_onUNhunwq-0PMVupzS-11" value="" style="rounded=1;whiteSpace=wrap;html=1;fontSize=16;dashed=1;strokeColor=#7EA6E0;arcSize=2;fontFamily=Helvetica;" parent="L_onUNhunwq-0PMVupzS-10" vertex="1">
          <mxGeometry width="310" height="228" as="geometry" />
        </mxCell>
        <mxCell id="L_onUNhunwq-0PMVupzS-12" value="spoke-03&lt;br&gt;10.13.3.0/24" style="aspect=fixed;html=1;points=[];align=left;image;fontSize=12;image=img/lib/azure2/networking/Virtual_Networks.svg;fontColor=#333333;fontFamily=Helvetica;" parent="L_onUNhunwq-0PMVupzS-10" vertex="1">
          <mxGeometry x="7" y="5" width="23" height="13.73" as="geometry" />
        </mxCell>
        <mxCell id="L_onUNhunwq-0PMVupzS-13" value="services&lt;br&gt;10.13.3.64/26" style="rounded=1;whiteSpace=wrap;html=1;fontSize=12;arcSize=3;strokeColor=none;fillColor=#E6E6E6;align=left;verticalAlign=top;fontColor=#333333;fontFamily=Helvetica;" parent="L_onUNhunwq-0PMVupzS-10" vertex="1">
          <mxGeometry x="160" y="88" width="142" height="133" as="geometry" />
        </mxCell>
        <mxCell id="L_onUNhunwq-0PMVupzS-15" value="default&lt;br&gt;10.13.3.0/26" style="rounded=1;whiteSpace=wrap;html=1;fontSize=12;arcSize=3;strokeColor=none;fillColor=#E6E6E6;fontColor=#333333;align=left;verticalAlign=top;fontFamily=Helvetica;" parent="L_onUNhunwq-0PMVupzS-10" vertex="1">
          <mxGeometry x="7" y="88" width="142" height="133" as="geometry" />
        </mxCell>
        <mxCell id="Q5VnFqTPQdIVWb0sbmC3-6" value="spoke-03-vm&lt;br&gt;10.13.3.4" style="image;sketch=0;aspect=fixed;html=1;points=[];align=center;fontSize=12;image=img/lib/mscae/VM_Linux.svg;fontColor=#333333;fontFamily=Helvetica;" parent="L_onUNhunwq-0PMVupzS-10" vertex="1">
          <mxGeometry x="53" y="131.5" width="50" height="46" as="geometry" />
        </mxCell>
        <mxCell id="FjdcS0Hu4CrfSGPX0AEl-8" value="north europe" style="shadow=0;dashed=0;html=1;strokeColor=none;fillColor=#4495D1;labelPosition=right;verticalLabelPosition=middle;verticalAlign=middle;align=left;outlineConnect=0;shape=mxgraph.veeam.globe;fontSize=12;fontColor=#808080;direction=south;rotation=0;fontFamily=Helvetica;" parent="L_onUNhunwq-0PMVupzS-10" vertex="1">
          <mxGeometry x="224.5" y="5.230000000000018" width="13" height="13.5" as="geometry" />
        </mxCell>
        <mxCell id="L_onUNhunwq-0PMVupzS-18" value="" style="rounded=1;whiteSpace=wrap;html=1;fontSize=16;dashed=1;strokeColor=#7EA6E0;arcSize=2;fontFamily=Helvetica;" parent="1" vertex="1">
          <mxGeometry x="-127.26" y="-100" width="187.26" height="660" as="geometry" />
        </mxCell>
        <mxCell id="L_onUNhunwq-0PMVupzS-19" value="hub-lab-net&lt;br&gt;10.12.0.0/16" style="aspect=fixed;html=1;points=[];align=left;image;fontSize=12;image=img/lib/azure2/networking/Virtual_Networks.svg;fontColor=#333333;fontFamily=Helvetica;" parent="1" vertex="1">
          <mxGeometry x="-120.25999999999999" y="-95" width="23" height="13.73" as="geometry" />
        </mxCell>
        <mxCell id="L_onUNhunwq-0PMVupzS-21" value="" style="group;fontFamily=Helvetica;" parent="1" vertex="1" connectable="0">
          <mxGeometry x="-117.25999999999999" y="-30" width="142" height="133" as="geometry" />
        </mxCell>
        <mxCell id="L_onUNhunwq-0PMVupzS-22" value="DefaultSubnet&lt;br&gt;10.12.1.0/24" style="rounded=1;whiteSpace=wrap;html=1;fontSize=12;arcSize=3;strokeColor=none;fillColor=#E6E6E6;fontColor=#333333;align=left;verticalAlign=top;fontFamily=Helvetica;" parent="L_onUNhunwq-0PMVupzS-21" vertex="1">
          <mxGeometry width="142" height="133" as="geometry" />
        </mxCell>
        <mxCell id="L_onUNhunwq-0PMVupzS-23" value="hub-vm-01&lt;br&gt;10.12.1.4" style="image;sketch=0;aspect=fixed;html=1;points=[];align=center;fontSize=12;image=img/lib/mscae/VirtualMachineWindows.svg;fontFamily=Helvetica;" parent="L_onUNhunwq-0PMVupzS-21" vertex="1">
          <mxGeometry x="46" y="40" width="50" height="46" as="geometry" />
        </mxCell>
        <mxCell id="L_onUNhunwq-0PMVupzS-28" value="AzureFirewallSubnet&lt;br&gt;10.12.2.0/24" style="rounded=1;whiteSpace=wrap;html=1;fontSize=12;arcSize=3;strokeColor=none;fillColor=#E6E6E6;fontColor=#333333;align=left;verticalAlign=top;fontFamily=Helvetica;" parent="1" vertex="1">
          <mxGeometry x="-117.25999999999999" y="270" width="142" height="133" as="geometry" />
        </mxCell>
        <mxCell id="L_onUNhunwq-0PMVupzS-29" value="" style="group;fontFamily=Helvetica;" parent="1" vertex="1" connectable="0">
          <mxGeometry x="-117.25999999999999" y="120" width="142" height="133" as="geometry" />
        </mxCell>
        <mxCell id="L_onUNhunwq-0PMVupzS-25" value="AzureFirewallSubnet&lt;br&gt;10.12.3.0/24" style="rounded=1;whiteSpace=wrap;html=1;fontSize=12;arcSize=3;strokeColor=none;fillColor=#E6E6E6;fontColor=#333333;align=left;verticalAlign=top;fontFamily=Helvetica;" parent="L_onUNhunwq-0PMVupzS-29" vertex="1">
          <mxGeometry width="142" height="133" as="geometry" />
        </mxCell>
        <mxCell id="L_onUNhunwq-0PMVupzS-27" value="lab-firewall&lt;br&gt;10.12.3.4" style="image;sketch=0;aspect=fixed;html=1;points=[];align=center;fontSize=12;image=img/lib/mscae/Azure_Firewall.svg;fontFamily=Helvetica;" parent="L_onUNhunwq-0PMVupzS-29" vertex="1">
          <mxGeometry x="46" y="42" width="50" height="50" as="geometry" />
        </mxCell>
        <mxCell id="L_onUNhunwq-0PMVupzS-32" value="lab-bastion" style="image;aspect=fixed;html=1;points=[];align=center;fontSize=12;image=img/lib/azure2/networking/Bastions.svg;fontColor=#333333;fontFamily=Helvetica;" parent="1" vertex="1">
          <mxGeometry x="-71.25999999999999" y="320" width="35.82" height="42" as="geometry" />
        </mxCell>
        <mxCell id="L_onUNhunwq-0PMVupzS-33" value="lab-bastion-ip" style="image;aspect=fixed;html=1;points=[];align=center;fontSize=12;image=img/lib/azure2/networking/Public_IP_Addresses.svg;fontFamily=Helvetica;" parent="1" vertex="1">
          <mxGeometry x="-197.26" y="326" width="37.5" height="30" as="geometry" />
        </mxCell>
        <mxCell id="L_onUNhunwq-0PMVupzS-34" value="lab-firewall-ip" style="image;aspect=fixed;html=1;points=[];align=center;fontSize=12;image=img/lib/azure2/networking/Public_IP_Addresses.svg;fontFamily=Helvetica;" parent="1" vertex="1">
          <mxGeometry x="-197.26" y="180" width="37.5" height="30" as="geometry" />
        </mxCell>
        <mxCell id="L_onUNhunwq-0PMVupzS-35" value="peering" style="endArrow=classic;startArrow=classic;html=1;rounded=0;fontSize=12;startSize=8;endSize=8;strokeColor=#7EA6E0;fontFamily=Helvetica;" parent="1" edge="1">
          <mxGeometry width="50" height="50" relative="1" as="geometry">
            <mxPoint x="-88.63" y="-120" as="sourcePoint" />
            <mxPoint x="21.370000000000005" y="-120" as="targetPoint" />
            <mxPoint as="offset" />
          </mxGeometry>
        </mxCell>
        <mxCell id="L_onUNhunwq-0PMVupzS-36" value="" style="endArrow=none;dashed=1;html=1;rounded=0;fontSize=12;startSize=8;endSize=8;strokeColor=#808080;fontFamily=Helvetica;" parent="1" edge="1">
          <mxGeometry width="50" height="50" relative="1" as="geometry">
            <mxPoint x="-160.26" y="196" as="sourcePoint" />
            <mxPoint x="-71.25999999999999" y="196.5" as="targetPoint" />
          </mxGeometry>
        </mxCell>
        <mxCell id="L_onUNhunwq-0PMVupzS-37" value="" style="endArrow=none;dashed=1;html=1;rounded=0;fontSize=12;startSize=8;endSize=8;strokeColor=#808080;fontFamily=Helvetica;" parent="1" edge="1">
          <mxGeometry width="50" height="50" relative="1" as="geometry">
            <mxPoint x="-160.26" y="340.65999999999997" as="sourcePoint" />
            <mxPoint x="-71.25999999999999" y="341.15999999999997" as="targetPoint" />
          </mxGeometry>
        </mxCell>
        <mxCell id="FjdcS0Hu4CrfSGPX0AEl-1" value="west europe" style="shadow=0;dashed=0;html=1;strokeColor=none;fillColor=#4495D1;labelPosition=right;verticalLabelPosition=middle;verticalAlign=middle;align=left;outlineConnect=0;shape=mxgraph.veeam.globe;fontSize=12;fontColor=#808080;direction=south;rotation=-90;fontFamily=Helvetica;" parent="1" vertex="1">
          <mxGeometry x="43" y="-27" width="13" height="13.5" as="geometry" />
        </mxCell>
        <mxCell id="FjdcS0Hu4CrfSGPX0AEl-2" value="GatewaySubnet&lt;br&gt;10.12.4.0/24" style="rounded=1;whiteSpace=wrap;html=1;fontSize=12;arcSize=3;strokeColor=none;fillColor=#E6E6E6;fontColor=#333333;align=left;verticalAlign=top;fontFamily=Helvetica;" parent="1" vertex="1">
          <mxGeometry x="-117.25999999999999" y="420" width="142" height="133" as="geometry" />
        </mxCell>
        <mxCell id="FjdcS0Hu4CrfSGPX0AEl-3" value="lab-gateway&lt;br&gt;" style="image;sketch=0;aspect=fixed;html=1;points=[];align=center;fontSize=12;image=img/lib/mscae/VPN_Gateway.svg;fontColor=#333333;fontFamily=Helvetica;" parent="1" vertex="1">
          <mxGeometry x="-73.23999999999998" y="473" width="37.8" height="42" as="geometry" />
        </mxCell>
        <mxCell id="FjdcS0Hu4CrfSGPX0AEl-4" value="lab-gateway-ip" style="image;aspect=fixed;html=1;points=[];align=center;fontSize=12;image=img/lib/azure2/networking/Public_IP_Addresses.svg;fontFamily=Helvetica;" parent="1" vertex="1">
          <mxGeometry x="-199.24" y="485" width="37.5" height="30" as="geometry" />
        </mxCell>
        <mxCell id="FjdcS0Hu4CrfSGPX0AEl-5" value="" style="endArrow=none;dashed=1;html=1;rounded=0;fontSize=12;startSize=8;endSize=8;strokeColor=#808080;fontFamily=Helvetica;" parent="1" edge="1">
          <mxGeometry width="50" height="50" relative="1" as="geometry">
            <mxPoint x="-162.24" y="499.65999999999997" as="sourcePoint" />
            <mxPoint x="-73.23999999999998" y="500.15999999999997" as="targetPoint" />
          </mxGeometry>
        </mxCell>
        <mxCell id="FjdcS0Hu4CrfSGPX0AEl-9" value="" style="endArrow=classic;startArrow=classic;html=1;rounded=0;fontSize=12;startSize=8;endSize=8;strokeColor=#7EA6E0;fontFamily=Helvetica;" parent="1" edge="1">
          <mxGeometry width="50" height="50" relative="1" as="geometry">
            <mxPoint x="60" as="sourcePoint" />
            <mxPoint x="129" as="targetPoint" />
          </mxGeometry>
        </mxCell>
        <mxCell id="FjdcS0Hu4CrfSGPX0AEl-10" value="" style="endArrow=classic;startArrow=classic;html=1;rounded=0;fontSize=12;startSize=8;endSize=8;strokeColor=#7EA6E0;fontFamily=Helvetica;" parent="1" edge="1">
          <mxGeometry width="50" height="50" relative="1" as="geometry">
            <mxPoint x="61" y="246" as="sourcePoint" />
            <mxPoint x="130" y="246" as="targetPoint" />
          </mxGeometry>
        </mxCell>
        <mxCell id="FjdcS0Hu4CrfSGPX0AEl-11" value="" style="endArrow=classic;startArrow=classic;html=1;rounded=0;fontSize=12;startSize=8;endSize=8;strokeColor=#7EA6E0;fontFamily=Helvetica;" parent="1" edge="1">
          <mxGeometry width="50" height="50" relative="1" as="geometry">
            <mxPoint x="61" y="491" as="sourcePoint" />
            <mxPoint x="130" y="491" as="targetPoint" />
          </mxGeometry>
        </mxCell>
        <mxCell id="FjdcS0Hu4CrfSGPX0AEl-12" value="&lt;b&gt;Virtual Machines account name&lt;/b&gt;: nicola&lt;br style=&quot;font-size: 12px;&quot;&gt;&lt;b&gt;Virtual machines password&lt;/b&gt;: password.123" style="text;strokeColor=none;fillColor=none;html=1;align=left;verticalAlign=middle;whiteSpace=wrap;rounded=0;fontSize=12;fontFamily=Helvetica;" parent="1" vertex="1">
          <mxGeometry x="-150" y="-170" width="250" height="30" as="geometry" />
        </mxCell>
        <mxCell id="bmhbXqMb54WXmNrQA4yd-1" value="" style="group;fontFamily=Helvetica;" parent="1" vertex="1" connectable="0">
          <mxGeometry x="918.48" y="-186.5" width="310" height="228" as="geometry" />
        </mxCell>
        <mxCell id="bmhbXqMb54WXmNrQA4yd-2" value="" style="rounded=1;whiteSpace=wrap;html=1;fontSize=16;dashed=1;strokeColor=#7EA6E0;arcSize=2;fontFamily=Helvetica;" parent="bmhbXqMb54WXmNrQA4yd-1" vertex="1">
          <mxGeometry width="310" height="228" as="geometry" />
        </mxCell>
        <mxCell id="bmhbXqMb54WXmNrQA4yd-3" value="spoke-04&lt;br&gt;10.15.1.0/24" style="aspect=fixed;html=1;points=[];align=left;image;fontSize=12;image=img/lib/azure2/networking/Virtual_Networks.svg;fontColor=#333333;fontFamily=Helvetica;" parent="bmhbXqMb54WXmNrQA4yd-1" vertex="1">
          <mxGeometry x="7" y="5" width="23" height="13.73" as="geometry" />
        </mxCell>
        <mxCell id="bmhbXqMb54WXmNrQA4yd-4" value="services&lt;br&gt;10.15.1.64/26" style="rounded=1;whiteSpace=wrap;html=1;fontSize=12;arcSize=3;strokeColor=none;fillColor=#E6E6E6;align=left;verticalAlign=top;fontColor=#333333;fontFamily=Helvetica;" parent="bmhbXqMb54WXmNrQA4yd-1" vertex="1">
          <mxGeometry x="160" y="88" width="142" height="133" as="geometry" />
        </mxCell>
        <mxCell id="bmhbXqMb54WXmNrQA4yd-5" value="" style="group;fontFamily=Helvetica;" parent="bmhbXqMb54WXmNrQA4yd-1" vertex="1" connectable="0">
          <mxGeometry x="7" y="88" width="142" height="133" as="geometry" />
        </mxCell>
        <mxCell id="bmhbXqMb54WXmNrQA4yd-6" value="default&lt;br&gt;10.15.1.0/26" style="rounded=1;whiteSpace=wrap;html=1;fontSize=12;arcSize=3;strokeColor=none;fillColor=#E6E6E6;fontColor=#333333;align=left;verticalAlign=top;fontFamily=Helvetica;" parent="bmhbXqMb54WXmNrQA4yd-5" vertex="1">
          <mxGeometry width="142" height="133" as="geometry" />
        </mxCell>
        <mxCell id="bmhbXqMb54WXmNrQA4yd-7" value="spoke-04-vm&lt;br&gt;10.15.1.4" style="image;sketch=0;aspect=fixed;html=1;points=[];align=center;fontSize=12;image=img/lib/mscae/VirtualMachineWindows.svg;fontFamily=Helvetica;" parent="bmhbXqMb54WXmNrQA4yd-5" vertex="1">
          <mxGeometry x="46" y="40" width="50" height="46" as="geometry" />
        </mxCell>
        <mxCell id="bmhbXqMb54WXmNrQA4yd-8" value="north europe" style="shadow=0;dashed=0;html=1;strokeColor=none;fillColor=#4495D1;labelPosition=right;verticalLabelPosition=middle;verticalAlign=middle;align=left;outlineConnect=0;shape=mxgraph.veeam.globe;fontSize=12;fontColor=#808080;direction=south;rotation=0;fontFamily=Helvetica;" parent="bmhbXqMb54WXmNrQA4yd-1" vertex="1">
          <mxGeometry x="224.5" y="5.230000000000018" width="13" height="13.5" as="geometry" />
        </mxCell>
        <mxCell id="bmhbXqMb54WXmNrQA4yd-24" value="" style="rounded=1;whiteSpace=wrap;html=1;fontSize=16;dashed=1;strokeColor=#7EA6E0;arcSize=2;fontFamily=Helvetica;" parent="1" vertex="1">
          <mxGeometry x="661.98" y="-88.5" width="187.26" height="660" as="geometry" />
        </mxCell>
        <mxCell id="bmhbXqMb54WXmNrQA4yd-25" value="hub-lab-02-net&lt;br&gt;10.14.0.0/16" style="aspect=fixed;html=1;points=[];align=left;image;fontSize=12;image=img/lib/azure2/networking/Virtual_Networks.svg;fontColor=#333333;fontFamily=Helvetica;" parent="1" vertex="1">
          <mxGeometry x="668.98" y="-83.5" width="23" height="13.73" as="geometry" />
        </mxCell>
        <mxCell id="bmhbXqMb54WXmNrQA4yd-29" value="AzureFirewallSubnet&lt;br&gt;10.14.2.0/24" style="rounded=1;whiteSpace=wrap;html=1;fontSize=12;arcSize=3;strokeColor=none;fillColor=#E6E6E6;fontColor=#333333;align=left;verticalAlign=top;fontFamily=Helvetica;" parent="1" vertex="1">
          <mxGeometry x="671.98" y="281.5" width="142" height="133" as="geometry" />
        </mxCell>
        <mxCell id="bmhbXqMb54WXmNrQA4yd-30" value="" style="group;fontFamily=Helvetica;" parent="1" vertex="1" connectable="0">
          <mxGeometry x="671.98" y="131.5" width="142" height="133" as="geometry" />
        </mxCell>
        <mxCell id="bmhbXqMb54WXmNrQA4yd-31" value="AzureFirewallSubnet&lt;br&gt;10.14.3.0/24" style="rounded=1;whiteSpace=wrap;html=1;fontSize=12;arcSize=3;strokeColor=none;fillColor=#E6E6E6;fontColor=#333333;align=left;verticalAlign=top;fontFamily=Helvetica;" parent="bmhbXqMb54WXmNrQA4yd-30" vertex="1">
          <mxGeometry width="142" height="133" as="geometry" />
        </mxCell>
        <mxCell id="bmhbXqMb54WXmNrQA4yd-32" value="lab-firewall-03&lt;br&gt;10.14.3.4" style="image;sketch=0;aspect=fixed;html=1;points=[];align=center;fontSize=12;image=img/lib/mscae/Azure_Firewall.svg;fontFamily=Helvetica;" parent="bmhbXqMb54WXmNrQA4yd-30" vertex="1">
          <mxGeometry x="46" y="42" width="50" height="50" as="geometry" />
        </mxCell>
        <mxCell id="bmhbXqMb54WXmNrQA4yd-33" value="lab-bastion-02" style="image;aspect=fixed;html=1;points=[];align=center;fontSize=12;image=img/lib/azure2/networking/Bastions.svg;fontColor=#333333;fontFamily=Helvetica;" parent="1" vertex="1">
          <mxGeometry x="717.98" y="331.5" width="35.82" height="42" as="geometry" />
        </mxCell>
        <mxCell id="bmhbXqMb54WXmNrQA4yd-34" value="lab-bastion-02-ip" style="image;aspect=fixed;html=1;points=[];align=center;fontSize=12;image=img/lib/azure2/networking/Public_IP_Addresses.svg;fontFamily=Helvetica;" parent="1" vertex="1">
          <mxGeometry x="591.98" y="337.5" width="37.5" height="30" as="geometry" />
        </mxCell>
        <mxCell id="bmhbXqMb54WXmNrQA4yd-35" value="lab-firewall-02-ip" style="image;aspect=fixed;html=1;points=[];align=center;fontSize=12;image=img/lib/azure2/networking/Public_IP_Addresses.svg;fontFamily=Helvetica;" parent="1" vertex="1">
          <mxGeometry x="591.98" y="191.5" width="37.5" height="30" as="geometry" />
        </mxCell>
        <mxCell id="bmhbXqMb54WXmNrQA4yd-36" value="peering" style="endArrow=classic;startArrow=classic;html=1;rounded=0;fontSize=12;startSize=8;endSize=8;strokeColor=#7EA6E0;fontFamily=Helvetica;" parent="1" edge="1">
          <mxGeometry width="50" height="50" relative="1" as="geometry">
            <mxPoint x="699.85" y="-158.5" as="sourcePoint" />
            <mxPoint x="809.85" y="-158.5" as="targetPoint" />
            <mxPoint as="offset" />
          </mxGeometry>
        </mxCell>
        <mxCell id="bmhbXqMb54WXmNrQA4yd-37" value="" style="endArrow=none;dashed=1;html=1;rounded=0;fontSize=12;startSize=8;endSize=8;strokeColor=#808080;fontFamily=Helvetica;" parent="1" edge="1">
          <mxGeometry width="50" height="50" relative="1" as="geometry">
            <mxPoint x="628.98" y="207.5" as="sourcePoint" />
            <mxPoint x="717.98" y="208" as="targetPoint" />
          </mxGeometry>
        </mxCell>
        <mxCell id="bmhbXqMb54WXmNrQA4yd-38" value="" style="endArrow=none;dashed=1;html=1;rounded=0;fontSize=12;startSize=8;endSize=8;strokeColor=#808080;fontFamily=Helvetica;" parent="1" edge="1">
          <mxGeometry width="50" height="50" relative="1" as="geometry">
            <mxPoint x="628.98" y="352.15999999999985" as="sourcePoint" />
            <mxPoint x="717.98" y="352.65999999999985" as="targetPoint" />
          </mxGeometry>
        </mxCell>
        <mxCell id="bmhbXqMb54WXmNrQA4yd-39" value="north europe" style="shadow=0;dashed=0;html=1;strokeColor=none;fillColor=#4495D1;labelPosition=right;verticalLabelPosition=middle;verticalAlign=middle;align=left;outlineConnect=0;shape=mxgraph.veeam.globe;fontSize=12;fontColor=#808080;direction=south;rotation=-90;fontFamily=Helvetica;" parent="1" vertex="1">
          <mxGeometry x="827" y="-8.5" width="13" height="13.5" as="geometry" />
        </mxCell>
        <mxCell id="bmhbXqMb54WXmNrQA4yd-40" value="GatewaySubnet&lt;br&gt;10.14.4.0/24" style="rounded=1;whiteSpace=wrap;html=1;fontSize=12;arcSize=3;strokeColor=none;fillColor=#E6E6E6;fontColor=#333333;align=left;verticalAlign=top;fontFamily=Helvetica;" parent="1" vertex="1">
          <mxGeometry x="671.98" y="431.5" width="142" height="133" as="geometry" />
        </mxCell>
        <mxCell id="bmhbXqMb54WXmNrQA4yd-41" value="lab-gateway-02" style="image;sketch=0;aspect=fixed;html=1;points=[];align=center;fontSize=12;image=img/lib/mscae/VPN_Gateway.svg;fontColor=#333333;fontFamily=Helvetica;" parent="1" vertex="1">
          <mxGeometry x="716" y="484.5" width="37.8" height="42" as="geometry" />
        </mxCell>
        <mxCell id="bmhbXqMb54WXmNrQA4yd-42" value="lab-gateway-ip" style="image;aspect=fixed;html=1;points=[];align=center;fontSize=12;image=img/lib/azure2/networking/Public_IP_Addresses.svg;fontFamily=Helvetica;" parent="1" vertex="1">
          <mxGeometry x="590" y="496.5" width="37.5" height="30" as="geometry" />
        </mxCell>
        <mxCell id="bmhbXqMb54WXmNrQA4yd-43" value="" style="endArrow=none;dashed=1;html=1;rounded=0;fontSize=12;startSize=8;endSize=8;strokeColor=#808080;fontFamily=Helvetica;" parent="1" edge="1">
          <mxGeometry width="50" height="50" relative="1" as="geometry">
            <mxPoint x="627" y="511.15999999999985" as="sourcePoint" />
            <mxPoint x="716" y="511.65999999999985" as="targetPoint" />
          </mxGeometry>
        </mxCell>
        <mxCell id="bmhbXqMb54WXmNrQA4yd-44" value="" style="endArrow=classic;startArrow=classic;html=1;rounded=0;fontSize=12;startSize=8;endSize=8;strokeColor=#7EA6E0;fontFamily=Helvetica;" parent="1" edge="1">
          <mxGeometry width="50" height="50" relative="1" as="geometry">
            <mxPoint x="848.48" y="-38.5" as="sourcePoint" />
            <mxPoint x="917.48" y="-38.5" as="targetPoint" />
          </mxGeometry>
        </mxCell>
        <mxCell id="bmhbXqMb54WXmNrQA4yd-47" value="&lt;b&gt;Virtual Machines account name&lt;/b&gt;: nicola&lt;br style=&quot;font-size: 12px;&quot;&gt;&lt;b&gt;Virtual machines password&lt;/b&gt;: password.123" style="text;strokeColor=none;fillColor=none;html=1;align=left;verticalAlign=middle;whiteSpace=wrap;rounded=0;fontSize=12;fontFamily=Helvetica;" parent="1" vertex="1">
          <mxGeometry x="638.48" y="-208.5" width="250" height="30" as="geometry" />
        </mxCell>
        <mxCell id="bmhbXqMb54WXmNrQA4yd-27" value="DefaultSubnet&lt;br&gt;10.14.1.0/24" style="rounded=1;whiteSpace=wrap;html=1;fontSize=12;arcSize=3;strokeColor=none;fillColor=#E6E6E6;fontColor=#333333;align=left;verticalAlign=top;fontFamily=Helvetica;" parent="1" vertex="1">
          <mxGeometry x="671.98" y="-18.5" width="142" height="133" as="geometry" />
        </mxCell>
        <mxCell id="bmhbXqMb54WXmNrQA4yd-85" value="" style="group" parent="1" vertex="1" connectable="0">
          <mxGeometry x="849.48" y="51.5" width="379" height="80" as="geometry" />
        </mxCell>
        <mxCell id="bmhbXqMb54WXmNrQA4yd-46" value="" style="endArrow=classic;startArrow=classic;html=1;rounded=0;fontSize=12;startSize=8;endSize=8;strokeColor=#7EA6E0;fontFamily=Helvetica;" parent="bmhbXqMb54WXmNrQA4yd-85" edge="1">
          <mxGeometry width="50" height="50" relative="1" as="geometry">
            <mxPoint y="39.710000000000036" as="sourcePoint" />
            <mxPoint x="69.00000000000001" y="39.710000000000036" as="targetPoint" />
          </mxGeometry>
        </mxCell>
        <mxCell id="bmhbXqMb54WXmNrQA4yd-18" value="" style="rounded=1;whiteSpace=wrap;html=1;fontSize=16;dashed=1;strokeColor=#7EA6E0;arcSize=2;fontFamily=Helvetica;" parent="bmhbXqMb54WXmNrQA4yd-85" vertex="1">
          <mxGeometry x="69.00000000000001" width="310" height="80" as="geometry" />
        </mxCell>
        <mxCell id="bmhbXqMb54WXmNrQA4yd-19" value="spoke-05&lt;br&gt;10.15.5.0/24" style="aspect=fixed;html=1;points=[];align=left;image;fontSize=12;image=img/lib/azure2/networking/Virtual_Networks.svg;fontColor=#333333;fontFamily=Helvetica;" parent="bmhbXqMb54WXmNrQA4yd-85" vertex="1">
          <mxGeometry x="76.00000000000001" y="5" width="23" height="13.73" as="geometry" />
        </mxCell>
        <mxCell id="bmhbXqMb54WXmNrQA4yd-20" value="services&lt;br&gt;10.15.5.64/26" style="rounded=1;whiteSpace=wrap;html=1;fontSize=12;arcSize=3;strokeColor=none;fillColor=#E6E6E6;align=left;verticalAlign=top;fontColor=#333333;fontFamily=Helvetica;" parent="bmhbXqMb54WXmNrQA4yd-85" vertex="1">
          <mxGeometry x="269.76" y="30" width="100" height="42" as="geometry" />
        </mxCell>
        <mxCell id="bmhbXqMb54WXmNrQA4yd-21" value="default&lt;br&gt;10.15.5.0/26" style="rounded=1;whiteSpace=wrap;html=1;fontSize=12;arcSize=3;strokeColor=none;fillColor=#E6E6E6;fontColor=#333333;align=left;verticalAlign=top;fontFamily=Helvetica;" parent="bmhbXqMb54WXmNrQA4yd-85" vertex="1">
          <mxGeometry x="159.76" y="30" width="100" height="42" as="geometry" />
        </mxCell>
        <mxCell id="bmhbXqMb54WXmNrQA4yd-23" value="north europe" style="shadow=0;dashed=0;html=1;strokeColor=none;fillColor=#4495D1;labelPosition=right;verticalLabelPosition=middle;verticalAlign=middle;align=left;outlineConnect=0;shape=mxgraph.veeam.globe;fontSize=12;fontColor=#808080;direction=south;rotation=0;fontFamily=Helvetica;" parent="bmhbXqMb54WXmNrQA4yd-85" vertex="1">
          <mxGeometry x="293.5" y="5.230000000000018" width="13" height="13.5" as="geometry" />
        </mxCell>
        <mxCell id="bmhbXqMb54WXmNrQA4yd-86" value="" style="group" parent="1" vertex="1" connectable="0">
          <mxGeometry x="849.24" y="141.5" width="379" height="80" as="geometry" />
        </mxCell>
        <mxCell id="bmhbXqMb54WXmNrQA4yd-87" value="" style="endArrow=classic;startArrow=classic;html=1;rounded=0;fontSize=12;startSize=8;endSize=8;strokeColor=#7EA6E0;fontFamily=Helvetica;" parent="bmhbXqMb54WXmNrQA4yd-86" edge="1">
          <mxGeometry width="50" height="50" relative="1" as="geometry">
            <mxPoint y="39.710000000000036" as="sourcePoint" />
            <mxPoint x="69.00000000000001" y="39.710000000000036" as="targetPoint" />
          </mxGeometry>
        </mxCell>
        <mxCell id="bmhbXqMb54WXmNrQA4yd-88" value="" style="rounded=1;whiteSpace=wrap;html=1;fontSize=16;dashed=1;strokeColor=#7EA6E0;arcSize=2;fontFamily=Helvetica;" parent="bmhbXqMb54WXmNrQA4yd-86" vertex="1">
          <mxGeometry x="69.00000000000001" width="310" height="80" as="geometry" />
        </mxCell>
        <mxCell id="bmhbXqMb54WXmNrQA4yd-89" value="spoke-06&lt;br&gt;10.15.6.0/24" style="aspect=fixed;html=1;points=[];align=left;image;fontSize=12;image=img/lib/azure2/networking/Virtual_Networks.svg;fontColor=#333333;fontFamily=Helvetica;" parent="bmhbXqMb54WXmNrQA4yd-86" vertex="1">
          <mxGeometry x="76.00000000000001" y="5" width="23" height="13.73" as="geometry" />
        </mxCell>
        <mxCell id="bmhbXqMb54WXmNrQA4yd-90" value="services&lt;br&gt;10.15.6.64/26" style="rounded=1;whiteSpace=wrap;html=1;fontSize=12;arcSize=3;strokeColor=none;fillColor=#E6E6E6;align=left;verticalAlign=top;fontColor=#333333;fontFamily=Helvetica;" parent="bmhbXqMb54WXmNrQA4yd-86" vertex="1">
          <mxGeometry x="269.76" y="30" width="100" height="42" as="geometry" />
        </mxCell>
        <mxCell id="bmhbXqMb54WXmNrQA4yd-91" value="default&lt;br&gt;10.15.6.0/26" style="rounded=1;whiteSpace=wrap;html=1;fontSize=12;arcSize=3;strokeColor=none;fillColor=#E6E6E6;fontColor=#333333;align=left;verticalAlign=top;fontFamily=Helvetica;" parent="bmhbXqMb54WXmNrQA4yd-86" vertex="1">
          <mxGeometry x="159.76" y="30" width="100" height="42" as="geometry" />
        </mxCell>
        <mxCell id="bmhbXqMb54WXmNrQA4yd-92" value="north europe" style="shadow=0;dashed=0;html=1;strokeColor=none;fillColor=#4495D1;labelPosition=right;verticalLabelPosition=middle;verticalAlign=middle;align=left;outlineConnect=0;shape=mxgraph.veeam.globe;fontSize=12;fontColor=#808080;direction=south;rotation=0;fontFamily=Helvetica;" parent="bmhbXqMb54WXmNrQA4yd-86" vertex="1">
          <mxGeometry x="293.5" y="5.230000000000018" width="13" height="13.5" as="geometry" />
        </mxCell>
        <mxCell id="bmhbXqMb54WXmNrQA4yd-93" value="" style="group" parent="1" vertex="1" connectable="0">
          <mxGeometry x="849.24" y="231.5" width="379" height="80" as="geometry" />
        </mxCell>
        <mxCell id="bmhbXqMb54WXmNrQA4yd-94" value="" style="endArrow=classic;startArrow=classic;html=1;rounded=0;fontSize=12;startSize=8;endSize=8;strokeColor=#7EA6E0;fontFamily=Helvetica;" parent="bmhbXqMb54WXmNrQA4yd-93" edge="1">
          <mxGeometry width="50" height="50" relative="1" as="geometry">
            <mxPoint y="39.710000000000036" as="sourcePoint" />
            <mxPoint x="69.00000000000001" y="39.710000000000036" as="targetPoint" />
          </mxGeometry>
        </mxCell>
        <mxCell id="bmhbXqMb54WXmNrQA4yd-95" value="" style="rounded=1;whiteSpace=wrap;html=1;fontSize=16;dashed=1;strokeColor=#7EA6E0;arcSize=2;fontFamily=Helvetica;" parent="bmhbXqMb54WXmNrQA4yd-93" vertex="1">
          <mxGeometry x="69.00000000000001" width="310" height="80" as="geometry" />
        </mxCell>
        <mxCell id="bmhbXqMb54WXmNrQA4yd-96" value="spoke-07&lt;br&gt;10.15.7.0/24" style="aspect=fixed;html=1;points=[];align=left;image;fontSize=12;image=img/lib/azure2/networking/Virtual_Networks.svg;fontColor=#333333;fontFamily=Helvetica;" parent="bmhbXqMb54WXmNrQA4yd-93" vertex="1">
          <mxGeometry x="76.00000000000001" y="5" width="23" height="13.73" as="geometry" />
        </mxCell>
        <mxCell id="bmhbXqMb54WXmNrQA4yd-97" value="services&lt;br&gt;10.15.7.64/26" style="rounded=1;whiteSpace=wrap;html=1;fontSize=12;arcSize=3;strokeColor=none;fillColor=#E6E6E6;align=left;verticalAlign=top;fontColor=#333333;fontFamily=Helvetica;" parent="bmhbXqMb54WXmNrQA4yd-93" vertex="1">
          <mxGeometry x="269.76" y="30" width="100" height="42" as="geometry" />
        </mxCell>
        <mxCell id="bmhbXqMb54WXmNrQA4yd-98" value="default&lt;br&gt;10.15.7.0/26" style="rounded=1;whiteSpace=wrap;html=1;fontSize=12;arcSize=3;strokeColor=none;fillColor=#E6E6E6;fontColor=#333333;align=left;verticalAlign=top;fontFamily=Helvetica;" parent="bmhbXqMb54WXmNrQA4yd-93" vertex="1">
          <mxGeometry x="159.76" y="30" width="100" height="42" as="geometry" />
        </mxCell>
        <mxCell id="bmhbXqMb54WXmNrQA4yd-99" value="north europe" style="shadow=0;dashed=0;html=1;strokeColor=none;fillColor=#4495D1;labelPosition=right;verticalLabelPosition=middle;verticalAlign=middle;align=left;outlineConnect=0;shape=mxgraph.veeam.globe;fontSize=12;fontColor=#808080;direction=south;rotation=0;fontFamily=Helvetica;" parent="bmhbXqMb54WXmNrQA4yd-93" vertex="1">
          <mxGeometry x="293.5" y="5.230000000000018" width="13" height="13.5" as="geometry" />
        </mxCell>
        <mxCell id="bmhbXqMb54WXmNrQA4yd-100" value="" style="group" parent="1" vertex="1" connectable="0">
          <mxGeometry x="849.24" y="321.5" width="379" height="80" as="geometry" />
        </mxCell>
        <mxCell id="bmhbXqMb54WXmNrQA4yd-101" value="" style="endArrow=classic;startArrow=classic;html=1;rounded=0;fontSize=12;startSize=8;endSize=8;strokeColor=#7EA6E0;fontFamily=Helvetica;" parent="bmhbXqMb54WXmNrQA4yd-100" edge="1">
          <mxGeometry width="50" height="50" relative="1" as="geometry">
            <mxPoint y="39.710000000000036" as="sourcePoint" />
            <mxPoint x="69.00000000000001" y="39.710000000000036" as="targetPoint" />
          </mxGeometry>
        </mxCell>
        <mxCell id="bmhbXqMb54WXmNrQA4yd-102" value="" style="rounded=1;whiteSpace=wrap;html=1;fontSize=16;dashed=1;strokeColor=#7EA6E0;arcSize=2;fontFamily=Helvetica;" parent="bmhbXqMb54WXmNrQA4yd-100" vertex="1">
          <mxGeometry x="69.00000000000001" width="310" height="80" as="geometry" />
        </mxCell>
        <mxCell id="bmhbXqMb54WXmNrQA4yd-103" value="spoke-08&lt;br&gt;10.15.8.0/24" style="aspect=fixed;html=1;points=[];align=left;image;fontSize=12;image=img/lib/azure2/networking/Virtual_Networks.svg;fontColor=#333333;fontFamily=Helvetica;" parent="bmhbXqMb54WXmNrQA4yd-100" vertex="1">
          <mxGeometry x="76.00000000000001" y="5" width="23" height="13.73" as="geometry" />
        </mxCell>
        <mxCell id="bmhbXqMb54WXmNrQA4yd-104" value="services&lt;br&gt;10.15.8.64/26" style="rounded=1;whiteSpace=wrap;html=1;fontSize=12;arcSize=3;strokeColor=none;fillColor=#E6E6E6;align=left;verticalAlign=top;fontColor=#333333;fontFamily=Helvetica;" parent="bmhbXqMb54WXmNrQA4yd-100" vertex="1">
          <mxGeometry x="269.76" y="30" width="100" height="42" as="geometry" />
        </mxCell>
        <mxCell id="bmhbXqMb54WXmNrQA4yd-105" value="default&lt;br&gt;10.15.8.0/26" style="rounded=1;whiteSpace=wrap;html=1;fontSize=12;arcSize=3;strokeColor=none;fillColor=#E6E6E6;fontColor=#333333;align=left;verticalAlign=top;fontFamily=Helvetica;" parent="bmhbXqMb54WXmNrQA4yd-100" vertex="1">
          <mxGeometry x="159.76" y="30" width="100" height="42" as="geometry" />
        </mxCell>
        <mxCell id="bmhbXqMb54WXmNrQA4yd-106" value="north europe" style="shadow=0;dashed=0;html=1;strokeColor=none;fillColor=#4495D1;labelPosition=right;verticalLabelPosition=middle;verticalAlign=middle;align=left;outlineConnect=0;shape=mxgraph.veeam.globe;fontSize=12;fontColor=#808080;direction=south;rotation=0;fontFamily=Helvetica;" parent="bmhbXqMb54WXmNrQA4yd-100" vertex="1">
          <mxGeometry x="293.5" y="5.230000000000018" width="13" height="13.5" as="geometry" />
        </mxCell>
        <mxCell id="bmhbXqMb54WXmNrQA4yd-107" value="" style="group" parent="1" vertex="1" connectable="0">
          <mxGeometry x="849.24" y="411.5" width="379" height="80" as="geometry" />
        </mxCell>
        <mxCell id="bmhbXqMb54WXmNrQA4yd-108" value="" style="endArrow=classic;startArrow=classic;html=1;rounded=0;fontSize=12;startSize=8;endSize=8;strokeColor=#7EA6E0;fontFamily=Helvetica;" parent="bmhbXqMb54WXmNrQA4yd-107" edge="1">
          <mxGeometry width="50" height="50" relative="1" as="geometry">
            <mxPoint y="39.710000000000036" as="sourcePoint" />
            <mxPoint x="69.00000000000001" y="39.710000000000036" as="targetPoint" />
          </mxGeometry>
        </mxCell>
        <mxCell id="bmhbXqMb54WXmNrQA4yd-109" value="" style="rounded=1;whiteSpace=wrap;html=1;fontSize=16;dashed=1;strokeColor=#7EA6E0;arcSize=2;fontFamily=Helvetica;" parent="bmhbXqMb54WXmNrQA4yd-107" vertex="1">
          <mxGeometry x="69.00000000000001" width="310" height="80" as="geometry" />
        </mxCell>
        <mxCell id="bmhbXqMb54WXmNrQA4yd-110" value="spoke-09&lt;br&gt;10.15.9.0/24" style="aspect=fixed;html=1;points=[];align=left;image;fontSize=12;image=img/lib/azure2/networking/Virtual_Networks.svg;fontColor=#333333;fontFamily=Helvetica;" parent="bmhbXqMb54WXmNrQA4yd-107" vertex="1">
          <mxGeometry x="76.00000000000001" y="5" width="23" height="13.73" as="geometry" />
        </mxCell>
        <mxCell id="bmhbXqMb54WXmNrQA4yd-111" value="services&lt;br&gt;10.15.9.64/26" style="rounded=1;whiteSpace=wrap;html=1;fontSize=12;arcSize=3;strokeColor=none;fillColor=#E6E6E6;align=left;verticalAlign=top;fontColor=#333333;fontFamily=Helvetica;" parent="bmhbXqMb54WXmNrQA4yd-107" vertex="1">
          <mxGeometry x="269.76" y="30" width="100" height="42" as="geometry" />
        </mxCell>
        <mxCell id="bmhbXqMb54WXmNrQA4yd-112" value="default&lt;br&gt;10.15.9.0/26" style="rounded=1;whiteSpace=wrap;html=1;fontSize=12;arcSize=3;strokeColor=none;fillColor=#E6E6E6;fontColor=#333333;align=left;verticalAlign=top;fontFamily=Helvetica;" parent="bmhbXqMb54WXmNrQA4yd-107" vertex="1">
          <mxGeometry x="159.76" y="30" width="100" height="42" as="geometry" />
        </mxCell>
        <mxCell id="bmhbXqMb54WXmNrQA4yd-113" value="north europe" style="shadow=0;dashed=0;html=1;strokeColor=none;fillColor=#4495D1;labelPosition=right;verticalLabelPosition=middle;verticalAlign=middle;align=left;outlineConnect=0;shape=mxgraph.veeam.globe;fontSize=12;fontColor=#808080;direction=south;rotation=0;fontFamily=Helvetica;" parent="bmhbXqMb54WXmNrQA4yd-107" vertex="1">
          <mxGeometry x="293.5" y="5.230000000000018" width="13" height="13.5" as="geometry" />
        </mxCell>
        <mxCell id="bmhbXqMb54WXmNrQA4yd-114" value="" style="group" parent="1" vertex="1" connectable="0">
          <mxGeometry x="849.24" y="501.5" width="379" height="80" as="geometry" />
        </mxCell>
        <mxCell id="bmhbXqMb54WXmNrQA4yd-115" value="" style="endArrow=classic;startArrow=classic;html=1;rounded=0;fontSize=12;startSize=8;endSize=8;strokeColor=#7EA6E0;fontFamily=Helvetica;" parent="bmhbXqMb54WXmNrQA4yd-114" edge="1">
          <mxGeometry width="50" height="50" relative="1" as="geometry">
            <mxPoint y="39.710000000000036" as="sourcePoint" />
            <mxPoint x="69.00000000000001" y="39.710000000000036" as="targetPoint" />
          </mxGeometry>
        </mxCell>
        <mxCell id="bmhbXqMb54WXmNrQA4yd-116" value="" style="rounded=1;whiteSpace=wrap;html=1;fontSize=16;dashed=1;strokeColor=#7EA6E0;arcSize=2;fontFamily=Helvetica;" parent="bmhbXqMb54WXmNrQA4yd-114" vertex="1">
          <mxGeometry x="69.00000000000001" width="310" height="80" as="geometry" />
        </mxCell>
        <mxCell id="bmhbXqMb54WXmNrQA4yd-117" value="spoke-10&lt;br&gt;10.15.10.0/24" style="aspect=fixed;html=1;points=[];align=left;image;fontSize=12;image=img/lib/azure2/networking/Virtual_Networks.svg;fontColor=#333333;fontFamily=Helvetica;" parent="bmhbXqMb54WXmNrQA4yd-114" vertex="1">
          <mxGeometry x="76.00000000000001" y="5" width="23" height="13.73" as="geometry" />
        </mxCell>
        <mxCell id="bmhbXqMb54WXmNrQA4yd-118" value="services&lt;br&gt;10.15.10.64/26" style="rounded=1;whiteSpace=wrap;html=1;fontSize=12;arcSize=3;strokeColor=none;fillColor=#E6E6E6;align=left;verticalAlign=top;fontColor=#333333;fontFamily=Helvetica;" parent="bmhbXqMb54WXmNrQA4yd-114" vertex="1">
          <mxGeometry x="269.76" y="30" width="100" height="42" as="geometry" />
        </mxCell>
        <mxCell id="bmhbXqMb54WXmNrQA4yd-119" value="default&lt;br&gt;10.15.10.0/26" style="rounded=1;whiteSpace=wrap;html=1;fontSize=12;arcSize=3;strokeColor=none;fillColor=#E6E6E6;fontColor=#333333;align=left;verticalAlign=top;fontFamily=Helvetica;" parent="bmhbXqMb54WXmNrQA4yd-114" vertex="1">
          <mxGeometry x="159.76" y="30" width="100" height="42" as="geometry" />
        </mxCell>
        <mxCell id="bmhbXqMb54WXmNrQA4yd-120" value="north europe" style="shadow=0;dashed=0;html=1;strokeColor=none;fillColor=#4495D1;labelPosition=right;verticalLabelPosition=middle;verticalAlign=middle;align=left;outlineConnect=0;shape=mxgraph.veeam.globe;fontSize=12;fontColor=#808080;direction=south;rotation=0;fontFamily=Helvetica;" parent="bmhbXqMb54WXmNrQA4yd-114" vertex="1">
          <mxGeometry x="293.5" y="5.230000000000018" width="13" height="13.5" as="geometry" />
        </mxCell>
        <mxCell id="hpnd1dc4tP3PjBRDumoB-2" value="on-prem-net&lt;br&gt;192.168.0.0/16" style="aspect=fixed;html=1;points=[];align=left;image;fontSize=12;image=img/lib/azure2/networking/Virtual_Networks.svg;fontColor=#333333;fontFamily=Helvetica;" parent="1" vertex="1">
          <mxGeometry x="18.980000000000004" y="900" width="23" height="13.73" as="geometry" />
        </mxCell>
        <mxCell id="hpnd1dc4tP3PjBRDumoB-16" value="france central" style="shadow=0;dashed=0;html=1;strokeColor=none;fillColor=#4495D1;labelPosition=right;verticalLabelPosition=middle;verticalAlign=middle;align=left;outlineConnect=0;shape=mxgraph.veeam.globe;fontSize=12;fontColor=#808080;direction=south;rotation=0;fontFamily=Helvetica;" parent="1" vertex="1">
          <mxGeometry x="132.97" y="905" width="13" height="13.5" as="geometry" />
        </mxCell>
        <mxCell id="hpnd1dc4tP3PjBRDumoB-21" value="&lt;b&gt;Virtual Machines account name&lt;/b&gt;: nicola&lt;br style=&quot;font-size: 12px;&quot;&gt;&lt;b&gt;Virtual machines password&lt;/b&gt;: password.123" style="text;strokeColor=none;fillColor=none;html=1;align=left;verticalAlign=middle;whiteSpace=wrap;rounded=0;fontSize=12;fontFamily=Helvetica;" parent="1" vertex="1">
          <mxGeometry x="896.47" y="845" width="250" height="30" as="geometry" />
        </mxCell>
        <mxCell id="hpnd1dc4tP3PjBRDumoB-6" value="AzureFirewallSubnet&lt;br&gt;192.168.2.0/24" style="rounded=1;whiteSpace=wrap;html=1;fontSize=12;arcSize=3;strokeColor=none;fillColor=#E6E6E6;fontColor=#333333;align=left;verticalAlign=top;fontFamily=Helvetica;" parent="1" vertex="1">
          <mxGeometry x="21.980000000000004" y="1105" width="190.99" height="133" as="geometry" />
        </mxCell>
        <mxCell id="hpnd1dc4tP3PjBRDumoB-10" value="lab-bastion" style="image;aspect=fixed;html=1;points=[];align=center;fontSize=12;image=img/lib/azure2/networking/Bastions.svg;fontColor=#333333;fontFamily=Helvetica;" parent="1" vertex="1">
          <mxGeometry x="67.98" y="1155" width="35.82" height="42" as="geometry" />
        </mxCell>
        <mxCell id="hpnd1dc4tP3PjBRDumoB-11" value="bastion-onprem&lt;br&gt;publicip" style="image;aspect=fixed;html=1;points=[];align=center;fontSize=12;image=img/lib/azure2/networking/Public_IP_Addresses.svg;fontFamily=Helvetica;" parent="1" vertex="1">
          <mxGeometry x="-58.01999999999998" y="1161" width="37.5" height="30" as="geometry" />
        </mxCell>
        <mxCell id="hpnd1dc4tP3PjBRDumoB-15" value="" style="endArrow=none;dashed=1;html=1;rounded=0;fontSize=12;startSize=8;endSize=8;strokeColor=#808080;fontFamily=Helvetica;" parent="1" edge="1">
          <mxGeometry width="50" height="50" relative="1" as="geometry">
            <mxPoint x="-21.019999999999982" y="1175.6599999999999" as="sourcePoint" />
            <mxPoint x="67.98" y="1176.1599999999999" as="targetPoint" />
          </mxGeometry>
        </mxCell>
        <mxCell id="hpnd1dc4tP3PjBRDumoB-17" value="GatewaySubnet&lt;br&gt;192.168.3.0/24" style="rounded=1;whiteSpace=wrap;html=1;fontSize=12;arcSize=3;strokeColor=none;fillColor=#E6E6E6;fontColor=#333333;align=left;verticalAlign=top;fontFamily=Helvetica;" parent="1" vertex="1">
          <mxGeometry x="21.980000000000004" y="1245" width="190.99" height="133" as="geometry" />
        </mxCell>
        <mxCell id="hpnd1dc4tP3PjBRDumoB-18" value="lab-gateway&lt;br&gt;" style="image;sketch=0;aspect=fixed;html=1;points=[];align=center;fontSize=12;image=img/lib/mscae/VPN_Gateway.svg;fontColor=#333333;fontFamily=Helvetica;" parent="1" vertex="1">
          <mxGeometry x="66.00000000000001" y="1298" width="37.8" height="42" as="geometry" />
        </mxCell>
        <mxCell id="hpnd1dc4tP3PjBRDumoB-19" value="onprem-gateway&lt;br&gt;virtualip" style="image;aspect=fixed;html=1;points=[];align=center;fontSize=12;image=img/lib/azure2/networking/Public_IP_Addresses.svg;fontFamily=Helvetica;" parent="1" vertex="1">
          <mxGeometry x="-60" y="1310" width="37.5" height="30" as="geometry" />
        </mxCell>
        <mxCell id="hpnd1dc4tP3PjBRDumoB-20" value="" style="endArrow=none;dashed=1;html=1;rounded=0;fontSize=12;startSize=8;endSize=8;strokeColor=#808080;fontFamily=Helvetica;" parent="1" edge="1">
          <mxGeometry width="50" height="50" relative="1" as="geometry">
            <mxPoint x="-23" y="1324.6599999999999" as="sourcePoint" />
            <mxPoint x="66.00000000000001" y="1325.1599999999999" as="targetPoint" />
          </mxGeometry>
        </mxCell>
        <mxCell id="hpnd1dc4tP3PjBRDumoB-24" value="w11-onprem&lt;br&gt;192.168.1.4" style="image;sketch=0;aspect=fixed;html=1;points=[];align=center;fontSize=12;image=img/lib/mscae/VirtualMachineWindows.svg;fontFamily=Helvetica;" parent="1" vertex="1">
          <mxGeometry x="59.8954929577465" y="1008.5" width="50" height="46" as="geometry" />
        </mxCell>
        <mxCell id="hpnd1dc4tP3PjBRDumoB-27" value="" style="rounded=1;whiteSpace=wrap;html=1;fontSize=16;dashed=1;strokeColor=#7EA6E0;arcSize=2;fontFamily=Helvetica;" parent="1" vertex="1">
          <mxGeometry x="941.98" y="900" width="210.99" height="500" as="geometry" />
        </mxCell>
        <mxCell id="hpnd1dc4tP3PjBRDumoB-28" value="DefaultSubnet&lt;br&gt;10.20.1.0/24" style="rounded=1;whiteSpace=wrap;html=1;fontSize=12;arcSize=3;strokeColor=none;fillColor=#E6E6E6;fontColor=#333333;align=left;verticalAlign=top;fontFamily=Helvetica;" parent="1" vertex="1">
          <mxGeometry x="951.98" y="970" width="190.99" height="133" as="geometry" />
        </mxCell>
        <mxCell id="hpnd1dc4tP3PjBRDumoB-29" value="on-prem-net-2&lt;br&gt;10.20.0.0/16" style="aspect=fixed;html=1;points=[];align=left;image;fontSize=12;image=img/lib/azure2/networking/Virtual_Networks.svg;fontColor=#333333;fontFamily=Helvetica;" parent="1" vertex="1">
          <mxGeometry x="948.98" y="905" width="23" height="13.73" as="geometry" />
        </mxCell>
        <mxCell id="hpnd1dc4tP3PjBRDumoB-30" value="west central germany" style="shadow=0;dashed=0;html=1;strokeColor=none;fillColor=#4495D1;labelPosition=right;verticalLabelPosition=middle;verticalAlign=middle;align=left;outlineConnect=0;shape=mxgraph.veeam.globe;fontSize=12;fontColor=#808080;direction=south;rotation=0;fontFamily=Helvetica;" parent="1" vertex="1">
          <mxGeometry x="1014.97" y="910" width="13" height="13.5" as="geometry" />
        </mxCell>
        <mxCell id="hpnd1dc4tP3PjBRDumoB-31" value="AzureFirewallSubnet&lt;br&gt;10.12.2.0/24" style="rounded=1;whiteSpace=wrap;html=1;fontSize=12;arcSize=3;strokeColor=none;fillColor=#E6E6E6;fontColor=#333333;align=left;verticalAlign=top;fontFamily=Helvetica;" parent="1" vertex="1">
          <mxGeometry x="951.98" y="1110" width="190.99" height="133" as="geometry" />
        </mxCell>
        <mxCell id="hpnd1dc4tP3PjBRDumoB-32" value="lab-bastion" style="image;aspect=fixed;html=1;points=[];align=center;fontSize=12;image=img/lib/azure2/networking/Bastions.svg;fontColor=#333333;fontFamily=Helvetica;" parent="1" vertex="1">
          <mxGeometry x="997.98" y="1160" width="35.82" height="42" as="geometry" />
        </mxCell>
        <mxCell id="hpnd1dc4tP3PjBRDumoB-33" value="bastion-on-prem-2&lt;br&gt;publicip" style="image;aspect=fixed;html=1;points=[];align=center;fontSize=12;image=img/lib/azure2/networking/Public_IP_Addresses.svg;fontFamily=Helvetica;" parent="1" vertex="1">
          <mxGeometry x="871.98" y="1166" width="37.5" height="30" as="geometry" />
        </mxCell>
        <mxCell id="hpnd1dc4tP3PjBRDumoB-34" value="" style="endArrow=none;dashed=1;html=1;rounded=0;fontSize=12;startSize=8;endSize=8;strokeColor=#808080;fontFamily=Helvetica;" parent="1" edge="1">
          <mxGeometry width="50" height="50" relative="1" as="geometry">
            <mxPoint x="908.98" y="1180.6599999999999" as="sourcePoint" />
            <mxPoint x="997.98" y="1181.1599999999999" as="targetPoint" />
          </mxGeometry>
        </mxCell>
        <mxCell id="hpnd1dc4tP3PjBRDumoB-35" value="GatewaySubnet&lt;br&gt;10.12.4.0/24" style="rounded=1;whiteSpace=wrap;html=1;fontSize=12;arcSize=3;strokeColor=none;fillColor=#E6E6E6;fontColor=#333333;align=left;verticalAlign=top;fontFamily=Helvetica;" parent="1" vertex="1">
          <mxGeometry x="951.98" y="1250" width="190.99" height="133" as="geometry" />
        </mxCell>
        <mxCell id="hpnd1dc4tP3PjBRDumoB-36" value="lab-gateway&lt;br&gt;" style="image;sketch=0;aspect=fixed;html=1;points=[];align=center;fontSize=12;image=img/lib/mscae/VPN_Gateway.svg;fontColor=#333333;fontFamily=Helvetica;" parent="1" vertex="1">
          <mxGeometry x="996" y="1303" width="37.8" height="42" as="geometry" />
        </mxCell>
        <mxCell id="hpnd1dc4tP3PjBRDumoB-37" value="onprem-2-gateway&lt;br&gt;virtualip" style="image;aspect=fixed;html=1;points=[];align=center;fontSize=12;image=img/lib/azure2/networking/Public_IP_Addresses.svg;fontFamily=Helvetica;" parent="1" vertex="1">
          <mxGeometry x="870" y="1315" width="37.5" height="30" as="geometry" />
        </mxCell>
        <mxCell id="hpnd1dc4tP3PjBRDumoB-38" value="" style="endArrow=none;dashed=1;html=1;rounded=0;fontSize=12;startSize=8;endSize=8;strokeColor=#808080;fontFamily=Helvetica;" parent="1" edge="1">
          <mxGeometry width="50" height="50" relative="1" as="geometry">
            <mxPoint x="907" y="1329.6599999999999" as="sourcePoint" />
            <mxPoint x="996" y="1330.1599999999999" as="targetPoint" />
          </mxGeometry>
        </mxCell>
        <mxCell id="hpnd1dc4tP3PjBRDumoB-41" value="lin-onprem&lt;br&gt;10.20.1.4" style="image;sketch=0;aspect=fixed;html=1;points=[];align=center;fontSize=12;image=img/lib/mscae/VM_Linux.svg;fontColor=#333333;fontFamily=Helvetica;" parent="1" vertex="1">
          <mxGeometry x="989.9" y="1015" width="50" height="46" as="geometry" />
        </mxCell>
        <mxCell id="hpnd1dc4tP3PjBRDumoB-44" value="lin-onprem-2&lt;br&gt;10.20.1.5" style="image;sketch=0;aspect=fixed;html=1;points=[];align=center;fontSize=12;image=img/lib/mscae/VM_Linux.svg;fontColor=#333333;fontFamily=Helvetica;" parent="1" vertex="1">
          <mxGeometry x="1070" y="1015" width="48.37" height="44.5" as="geometry" />
        </mxCell>
        <mxCell id="hpnd1dc4tP3PjBRDumoB-45" value="&lt;b&gt;Virtual Machines account name&lt;/b&gt;: nicola&lt;br style=&quot;font-size: 12px;&quot;&gt;&lt;b&gt;Virtual machines password&lt;/b&gt;: password.123" style="text;strokeColor=none;fillColor=none;html=1;align=left;verticalAlign=middle;whiteSpace=wrap;rounded=0;fontSize=12;fontFamily=Helvetica;" parent="1" vertex="1">
          <mxGeometry x="-44.28999999999999" y="845" width="250" height="30" as="geometry" />
        </mxCell>
        <mxCell id="hpnd1dc4tP3PjBRDumoB-46" value="HUB" style="text;strokeColor=none;fillColor=none;html=1;align=center;verticalAlign=middle;whiteSpace=wrap;rounded=0;fontSize=120;fontStyle=1" parent="1" vertex="1">
          <mxGeometry x="130" y="-380" width="60" height="30" as="geometry" />
        </mxCell>
        <mxCell id="hpnd1dc4tP3PjBRDumoB-48" value="HUB02" style="text;strokeColor=none;fillColor=none;html=1;align=center;verticalAlign=middle;whiteSpace=wrap;rounded=0;fontSize=120;fontStyle=1" parent="1" vertex="1">
          <mxGeometry x="920" y="-390" width="60" height="30" as="geometry" />
        </mxCell>
        <mxCell id="hpnd1dc4tP3PjBRDumoB-49" value="ON PREM" style="text;strokeColor=none;fillColor=none;html=1;align=center;verticalAlign=middle;whiteSpace=wrap;rounded=0;fontSize=120;fontStyle=1" parent="1" vertex="1">
          <mxGeometry x="-150" y="670" width="610" height="140" as="geometry" />
        </mxCell>
        <mxCell id="hpnd1dc4tP3PjBRDumoB-50" value="ON PREM2" style="text;strokeColor=none;fillColor=none;html=1;align=center;verticalAlign=middle;whiteSpace=wrap;rounded=0;fontSize=120;fontStyle=1" parent="1" vertex="1">
          <mxGeometry x="550" y="670" width="870" height="140" as="geometry" />
        </mxCell>
      </root>
    </mxGraphModel>
  </diagram>
</mxfile>
